<svg version="1.2" xmlns="http://www.w3.org/2000/svg" viewBox="0 0 710 128" width="710" height="auto">
	<title>Attestation Station-LightBG-svg</title>
	<style>
		tspan { white-space:pre } 
		.s0 { fill: #0092ff } 
		.t1 { font-size: 56px;fill: #0092ff;font-family: "Verdana" } 
	</style>
	<g id="Layer">
		<g id="Layer">
			<path id="Layer" class="s0" d="m126 28.5q-0.8 4.6-2.4 9-1.8 4.5-3.5 8.2c-3.7 2.3-7.6 4-11.8 5.2-0.7 0.3-1.1 1-0.9 1.7 0.2 0.7 1 1.1 1.8 0.9q4.5-1.3 8.7-3.5-1.8 3.4-4.2 6.6c-3.7 4.8-14.7 5.3-14.8 5.4q-0.6 0.9-1.2 1.8 0.2 0.3 0.4 0.5c3.6 2.2 7.9 3.1 12.1 2.4q-5.2 8.4-11.4 16.1c-7.9 4.6-13.7 2.8-13.9 2.7-0.6-0.2-1.2 0-1.6 0.4-0.4 0.4-0.4 1-0.2 1.5 1.2 2.3 3.3 4 5.8 4.9-2.5 1.5-5.3 2.7-8.2 3.5-1 4.8-1.9 9.1-2.6 12.2 4.7 1.4 9.7 2.1 15 2.1 27.6 0 50-20.8 50-46.6 0-13.9-6.7-26.4-17.1-35z"/>
			<path id="Layer" class="s0" d="m70.1 90.5c-5.3-11.3-3.1-18.4-1.4-21.5 1.5 1.7 3.5 3 5.8 3.8 0.5 0.1 1.1 0 1.4-0.4 0.4-0.3 0.5-0.8 0.4-1.3-1.4-4.4-2.1-13.5-2.2-15.3q1.2-2.4 2.6-4.6c0.2 2.4 0.6 4.7 1.3 7 0.2 0.7 1 1.1 1.8 0.9 0.7-0.3 1.1-1 0.9-1.7-1-3.3-1.4-6.8-1.1-10.2 2.7-3.5 5.9-6.7 9.4-9.5q-0.3 1.6-0.2 3.3c0 0.7 0.7 1.2 1.4 1.2 0.8 0 1.4-0.6 1.4-1.4 0-2 0.3-3.9 0.9-5.8 4.7-3.3 10-5.8 15.6-7.5 5.8-1.6 10.3-2.1 13.5-2.2-8.1-5.2-17.9-8.3-28.5-8.3-27.7 0-50 20.9-50 46.6 0 16.8 9.5 31.5 23.9 39.7 0.8-4.6 1.9-9 3.1-12.8z"/>
			<path id="Layer" class="s0" d="m75.8 109.8l-3.6 3.6c-1-6.8-0.7-13.6 0.9-20.2 2.7-11 18.3-39.1 35.4-51.8-8.7 9.4-26.4 27.3-33 53.7-0.9 4-0.8 11 0.3 14.6z"/>
		</g>
	</g>
	<text id="Attestation Station" style="transform: matrix(1,0,0,1,153.379,80.523)" >
		<tspan x="0" y="0" class="t1">Attestation Station
</tspan>
	</text>
</svg>